<svg width="234" height="118" viewBox="0 0 234 118" fill="none" xmlns="http://www.w3.org/2000/svg">
<path d="M40.6112 45.0613C41.1594 44.6981 41.7598 44.2767 42.1271 43.951C43.7297 42.5496 45.0491 40.7724 45.7632 38.9871C46.1199 38.0945 46.3241 37.2092 46.3532 36.3805C46.3949 35.5032 46.2241 34.6155 45.8203 33.8348C45.6034 33.4168 45.3491 32.9992 45.0384 32.6456C44.869 32.4521 44.6127 32.1595 44.3323 32.1522C43.9534 32.143 43.7668 32.6184 43.5933 32.8912C43.1251 33.6294 42.7141 34.4044 42.352 35.2028C42.2559 35.4139 42.1632 35.6273 42.0739 35.8419C41.2261 37.875 40.6641 40.0162 40.1526 42.1569C39.9764 42.8975 39.8117 43.6449 39.6554 44.397C39.5404 44.949 40.1453 45.3685 40.6112 45.0613ZM18.6045 96.5171C17.1966 96.3394 14.5954 96.0858 13.1495 96.4183C11.5255 96.7922 10.3 97.8385 9.5629 99.336C8.64039 101.241 8.30708 103.984 9.94907 105.596C13.2434 108.832 16.399 104.565 17.7065 101.745C18.2904 100.488 18.9145 98.6817 19.2727 97.5933C19.4347 97.1014 19.1122 96.5804 18.6045 96.5171ZM76.877 106.927C76.5464 108.839 75.6315 110.667 74.4037 112.163C73.7942 112.928 73.0885 113.576 72.343 114.177C71.9656 114.458 71.5863 114.759 71.1822 114.992L70.5784 115.357L69.8896 115.696C68.0196 116.545 66.0731 116.931 64.2939 116.997C60.7073 117.142 57.6666 116.367 54.8531 115.476C52.0453 114.552 49.4743 113.368 46.9991 112.098C44.5311 110.818 42.1735 109.422 39.8492 108.014L36.3928 105.879C35.8266 105.532 35.2386 105.165 34.6432 104.781L32.9108 103.636C31.7814 102.889 30.6742 102.153 29.5778 101.45C28.7683 100.931 27.7025 101.3 27.3723 102.209C26.9313 103.425 26.4406 104.644 25.8694 105.865C25.2162 107.254 24.4614 108.647 23.4945 110.022C22.5245 111.393 21.3522 112.778 19.7374 113.994C18.9298 114.595 18.0088 115.152 16.9706 115.565C15.9347 115.978 14.7946 116.245 13.656 116.324C11.3554 116.496 9.21427 115.905 7.51712 115.096C6.66395 114.689 5.88165 114.23 5.16256 113.745L4.63886 113.375L4.37912 113.188C4.29981 113.132 4.14657 113.004 4.03471 112.912C3.5405 112.519 3.10836 112.073 2.70342 111.613C1.12503 109.732 0.396363 107.585 0.125125 105.624C-0.368696 101.67 0.622396 98.0427 2.68771 94.9606C3.71941 93.4286 5.09782 92.0632 6.72295 91.0591C7.53321 90.5511 8.41244 90.1611 9.30469 89.8527C10.2046 89.5726 11.124 89.3692 12.0289 89.2891C12.5101 89.2305 12.8718 89.2263 13.2602 89.2094C13.6441 89.188 14.0333 89.2025 14.4187 89.1995C15.1911 89.214 15.9638 89.2665 16.7296 89.3516C17.5391 89.4393 18.8022 89.6987 19.8286 89.9274C20.7668 90.1373 21.6904 89.5397 21.8996 88.5903C22.7325 84.8175 24.6978 75.8801 25.5357 71.81L28.4285 57.511C28.6377 56.4774 27.9714 55.4683 26.9478 55.2741C26.2858 55.1484 25.6257 54.9821 24.9748 54.771C23.4014 54.2535 21.8946 53.4884 20.5572 52.5241C17.8594 50.5967 15.9347 47.9526 14.6137 45.2413C13.9552 43.8748 13.4188 42.4803 13.0162 41.0582C12.8158 40.3475 12.6319 39.6357 12.4898 38.9109C12.3515 38.2056 12.2454 37.5708 12.155 36.7717C12.019 35.5664 12.7576 34.3761 13.9253 34.1229C15.1489 33.8566 16.3074 34.6175 16.6273 35.771L16.6756 35.9503C16.8047 36.4157 17.0043 37.0605 17.207 37.6129C17.4127 38.1857 17.6326 38.7557 17.8743 39.3116C18.3624 40.4215 18.9049 41.4938 19.5324 42.4799C20.7695 44.464 22.3184 46.0945 24.0584 47.1419C25.0097 47.7154 26.7225 48.0951 28.1013 48.3196C29.2709 48.5103 30.3804 47.7403 30.6133 46.5619L31.0826 44.1893C31.3604 42.8186 31.6715 41.4497 32.0193 40.0771C32.7242 37.3294 33.5307 34.5818 34.7784 31.7564C35.4224 30.3424 36.1457 28.9023 37.3265 27.3952C37.9295 26.6466 38.6646 25.8616 39.7228 25.1513C40.2741 24.7931 40.8625 24.4874 41.5 24.2702C42.1352 24.043 42.8313 23.8959 43.5266 23.853C44.9296 23.7495 46.2766 24.0737 47.3607 24.5606C48.4583 25.0498 49.3418 25.6919 50.0892 26.3784C51.573 27.7729 52.6093 29.3095 53.369 31.1573C53.5544 31.6254 53.7183 32.1181 53.8524 32.6537L53.9455 33.062L54.0076 33.4126C54.0448 33.6467 54.0926 33.88 54.1145 34.116C54.2363 35.0569 54.2482 36.0047 54.1796 36.9283C54.044 38.7833 53.5532 40.528 52.8675 42.1003C51.473 45.2459 49.3904 47.7656 46.9478 49.8018C45.7218 50.8205 44.3829 51.7112 42.9014 52.4483C42.5099 52.6437 42.1869 52.782 41.8571 52.9256C41.5268 53.0716 41.1951 53.2145 40.8556 53.3474C40.1829 53.6244 39.4948 53.878 38.7976 54.1175C38.7493 54.1339 38.6995 54.1508 38.6516 54.1661L38.6417 54.1692C38.0839 54.3565 37.6686 54.835 37.5559 55.4212L34.0751 73.588C33.2261 77.9308 30.9401 88.7405 30.1368 92.5179C29.9697 93.3018 30.3478 94.0998 31.0531 94.4664C32.8894 95.4245 34.6704 96.3731 36.4388 97.2136C37.0253 97.4925 37.6107 97.7519 38.1927 98.0097L39.9699 98.774C41.1774 99.2985 42.3984 99.7858 43.6105 100.277C46.0356 101.257 48.4652 102.174 50.8566 103.042C53.2433 103.909 55.6059 104.714 57.8658 105.368C60.1105 106.021 62.3064 106.466 64.0292 106.515C64.8927 106.529 65.5996 106.478 66.1892 106.332L66.4144 106.281L66.6972 106.197C66.8948 106.146 67.0638 106.069 67.2634 106.022C67.4354 105.947 67.6365 105.895 67.8017 105.81C67.9871 105.743 68.1633 105.665 68.3345 105.58C69.7164 104.904 71.0259 103.98 72.1395 101.795L72.2767 101.524C72.833 100.433 74.1539 99.9057 75.2411 100.449C75.7036 100.681 76.0499 101.055 76.2545 101.49C77.0023 103.08 77.2268 105.024 76.877 106.927Z" fill="#060707"/>
<path d="M57.7555 76.3095C58.1976 76.1494 58.5535 75.7111 58.5941 75.2744C59.1443 69.4083 59.7584 62.7277 59.7936 61.8289C59.807 61.5014 59.5764 61.3485 59.2416 61.3792C59.0301 61.3983 58.4106 61.4401 58.2164 61.4726C57.867 61.532 57.5222 61.7496 57.3651 62.0933C57.1514 62.5626 54.5022 70.5733 52.2817 77.3182C52.1082 77.8442 52.4963 78.2177 53.0177 78.0293L57.7555 76.3095ZM66.4221 89.3285C66.2884 89.7296 65.6854 89.9741 65.3697 90.0675C64.6997 90.2683 64.1101 90.3637 63.4565 90.4487C62.2386 90.6073 60.9564 90.7307 59.6833 90.846C58.7428 90.9314 56.2047 91.3812 56.0381 90.5775C55.9335 90.0714 56.2403 89.3619 56.6928 88.7711C57.3582 87.8988 57.595 85.9948 57.7322 84.4237C57.7322 84.4237 57.7555 84.1777 57.7973 83.7406C57.8482 83.2073 57.405 82.8958 56.8648 83.092L50.6681 85.3389C49.962 85.596 49.3533 86.2269 49.1272 86.9395C48.9698 87.4368 48.8188 87.9371 48.7633 88.1953C48.6568 88.6991 48.5449 89.1286 48.6572 89.4419C49.0238 90.4629 48.7878 91.6996 46.9761 91.9532C46.2762 92.0509 42.8508 92.3524 41.6192 92.5156C40.6993 92.6378 38.5685 93.0117 38.2835 92.1807C37.9919 91.331 39.8653 89.9335 40.4124 89.1776C42.0789 86.8771 42.4949 84.7757 43.6025 81.6197C44.6047 78.7629 45.4958 76.0092 46.5727 73.1589C47.732 70.0956 48.7985 67.6778 49.8142 64.6118C50.1444 63.6169 50.4719 62.7656 50.8497 61.6692C50.9707 61.3202 50.9033 60.9807 50.6543 60.824C50.2597 60.5758 49.8961 60.2724 49.5571 59.9188C48.7039 59.03 48.2814 57.2367 48.6158 55.7487C48.6219 55.715 48.625 55.6847 48.6269 55.6556C48.6419 55.4414 48.8135 55.1706 49.0342 55.1955C51.2408 55.4468 52.4798 55.9697 55.3826 55.579C59.1776 55.0698 60.0672 54.5024 63.8135 54.3036C66.4543 54.1642 68.2993 54.7381 69.4651 56.7965C69.677 57.1719 69.7743 57.645 69.911 58.1262C69.9896 58.4009 69.6961 59.0733 69.418 58.9897C69.033 58.8744 66.9788 58.6193 66.9424 59.5667C66.8458 62.1182 66.7975 64.1475 66.5428 66.5273C66.2478 69.2803 66.2957 71.8927 66.0892 74.6258C65.7712 78.8284 65.3429 82.0185 65.4923 86.0568C65.508 86.4993 65.541 86.9644 65.7111 87.3333C65.8708 87.6781 66.1206 87.952 66.3497 88.2386C66.5508 88.4918 66.629 88.9569 66.4221 89.3285Z" fill="#060707"/>
<path d="M93.7888 76.7267C92.0614 84.9738 84.6269 89.3343 78.4509 89.8947C73.6655 90.3288 67.7849 86.9958 69.189 79.6103C69.769 76.5554 72.1101 73.0485 74.6719 70.687C75.2006 70.2009 75.9055 70.1005 76.304 70.4507L79.0792 72.8918C79.3159 73.0994 79.4098 73.4324 79.3378 73.807C79.2692 74.1675 79.0508 74.5215 78.7397 74.7767C77.5609 75.7452 76.1557 77.5484 75.9059 78.8663C75.2818 82.1449 78.4601 83.1594 79.8883 83.0295C80.9135 82.9368 86.0747 82.2254 87.0995 77.3343C87.6695 74.6093 84.5001 72.1022 81.7042 69.8909C80.9706 69.3113 80.2116 68.7125 79.5132 68.0972C76.5963 65.5243 76.0266 61.3979 78.0655 57.5826C79.9446 54.0707 83.5159 51.7506 87.6213 51.3778C89.1207 51.2418 90.3095 51.4927 91.2554 51.9521C91.7894 52.2118 92.4917 52.1275 93.1743 51.8395C93.9593 51.5081 94.7727 51.2974 95.5473 51.1817C95.8132 51.2686 96.0262 51.4016 96.1036 51.5766C96.2388 51.8781 94.7225 58.1729 94.4493 59.4441C94.3535 59.89 94.1681 60.3949 93.88 60.816C93.2717 61.7017 92.1381 61.7871 91.3787 61.8343C90.8508 61.8676 88.6878 62.081 88.2821 61.8936C87.9415 61.7377 87.9093 61.5462 87.8898 61.1654C87.8699 60.796 87.8622 60.4482 87.8423 60.1091C87.8063 59.4659 87.5699 58.8905 87.1075 58.5472C86.857 58.3622 86.5451 58.24 86.1566 58.2461C85.7295 58.2603 84.4143 58.515 83.8979 59.5824C83.4718 60.4578 83.8055 61.4699 84.8131 62.3591C85.4004 62.8752 86.8309 64.0091 86.8309 64.0091C90.5072 66.9173 95.0834 70.5357 93.7888 76.7267Z" fill="#060707"/>
<path d="M120.484 63.5888C120.357 64.3072 119.541 64.9159 118.945 64.7064C116.519 63.849 116.451 61.0029 116.694 59.141C116.815 58.2154 116.48 56.0555 115.565 56.1612L115.212 56.1896C114.566 56.2405 113.925 56.8386 113.815 57.499C113.73 58.0105 113.656 58.5158 113.573 59.0031C113.222 61.0339 108.792 82.0169 108.958 82.6245C109.178 83.4317 110.238 84.4922 109.381 85.5108C108.499 86.5605 107.657 86.4663 106.696 86.5326C105.08 86.6448 104.305 86.7149 102.595 86.9042C101.297 87.049 99.6586 87.3685 99.2452 86.5701C98.7173 85.5507 100.247 84.4673 100.781 83.7014C101.319 82.9291 104.819 66.0702 106.458 58.0963C106.458 58.0928 106.459 58.089 106.459 58.0856C106.577 57.4588 106.171 57.0094 105.56 57.0669L105.184 57.1021C104.279 57.1611 103.009 59.4674 102.74 60.4056C102.196 62.2955 100.912 65.2634 98.0243 66.602C97.3163 66.9307 96.7282 66.4495 96.9029 65.7266L100.136 52.1984C100.325 51.4134 101.08 50.738 101.843 50.6687L121.781 48.8604C122.543 48.7911 123.038 49.3535 122.902 50.1335L120.484 63.5888Z" fill="#060707"/>
<path d="M177.215 35.4659C177.221 37.7166 176.821 39.8708 176.217 41.9775C175.811 43.3379 175.476 44.758 174.932 46.0652C173.784 48.7504 172.498 51.3819 170.795 53.787C169.683 55.4103 168.428 56.9136 167.03 58.2985C165.028 60.3331 156.821 69.2189 147.599 66.2161C140.834 63.9834 139.991 56.1837 144.205 50.043C149.525 42.2135 158.162 42.423 160.146 43.1038C160.965 43.3605 161.723 43.6888 162.255 44.4347C162.405 44.6197 162.494 44.8764 162.315 45.0913C162.142 45.3718 161.968 45.6522 161.568 45.6223C159.9 45.5089 158.406 45.843 156.96 46.7019C155.699 47.4122 154.372 48.1282 153.415 49.2737C152.573 50.2111 151.933 51.1957 151.437 52.2994C151.282 52.7772 150.504 54.436 151.108 55.97C151.951 57.9453 153.803 57.9096 155.435 57.6292C162.691 56.5075 168.585 45.5151 170.671 37.8468C170.665 37.7813 170.719 37.6438 170.712 37.5783C170.916 36.1704 171.06 34.833 170.934 33.4546C170.827 32.2731 170.653 31.0977 170.032 30.0943C169.721 29.5932 169.213 29.1101 168.712 28.6922C167.289 27.6298 165.669 27.3134 163.9 27.5398C160.033 28.0229 156.662 29.5867 153.549 31.788C150.435 33.9901 147.769 36.7473 145.395 39.808C143.62 42.1537 141.851 44.5642 140.363 47.1482C139.681 48.4014 139.078 49.7802 138.402 51.0988C136.334 55.3241 135.485 59.8355 134.917 64.5201C134.672 66.1973 134.695 67.9159 134.713 69.569C134.677 70.631 134.694 86.118 148.249 85.7487C161.804 85.3797 165.749 73.3729 166.276 71.8688C166.957 69.8882 167.304 67.8711 167.179 65.7644C167.119 65.1078 166.933 64.5281 166.551 63.9677C166.324 63.6573 166.109 63.478 165.768 63.3765C165.427 63.2758 165.249 62.762 165.553 62.4697C165.858 62.1774 166.162 61.8847 166.545 61.7181C167.573 61.3599 168.685 61.1924 169.838 61.4851C171.667 61.915 172.887 62.9298 173.89 64.4937C174.817 65.9314 175.157 67.4895 175.169 69.0767C175.211 76.817 171.074 83.8109 165.061 89.1223C161.684 92.076 156.275 95.2803 150.292 95.8232C134.448 97.2602 129.859 86.8873 129.028 85.043C128.532 83.963 128.09 82.7455 127.72 81.5878C127.349 80.43 127.05 79.3321 126.811 78.1621C126.554 76.7959 126.495 75.4114 126.303 74.0391C126.112 71.9378 126.119 69.8192 126.316 67.6167C126.562 63.7562 127.416 60.0382 128.606 56.3558C129.329 54.1058 130.053 51.8558 130.98 49.6541C131.684 47.9355 132.593 46.2648 133.567 44.5879C134.775 42.559 136.06 40.655 137.339 38.6862C139.671 35.1651 142.647 32.1811 145.839 29.3768C147.435 27.9742 149.114 26.7629 150.937 25.671C151.875 25.0561 152.748 24.4478 153.758 23.893C156.22 22.5441 158.922 21.6373 161.737 21.25C168.742 20.2834 171.874 22.6472 172.728 23.2981C177.39 27.177 177.162 32.691 177.215 35.4659Z" fill="#060707"/>
<path d="M206.5 42.7682C206.431 43.0402 206.291 43.3383 206.08 43.6432C205.556 44.4014 204.917 45.0849 204.445 45.8733C203.43 47.5701 203.275 49.5036 202.98 51.2099C202.929 51.5134 202.867 51.8175 202.806 52.121C202.421 54.0736 202.014 56.0286 201.615 57.9825C201.202 60.0014 198.982 70.6559 197.831 75.7834C197.524 77.1495 196.221 78.3398 194.895 78.4705C193.368 78.621 181.895 81.271 177.792 74.1751C174.938 69.2415 177.508 61.0622 179.579 55.4218C180.198 53.735 180.889 52.0175 181.633 50.2824C182.002 49.4231 181.993 48.5734 181.664 47.9053C181.661 47.8991 181.657 47.8919 181.655 47.8854C181.117 46.7717 180.807 45.2071 181.134 43.7513C181.14 43.7176 181.143 43.6896 181.145 43.6609C181.159 43.4517 181.327 43.1862 181.541 43.2111C183.683 43.4582 184.886 43.9708 187.705 43.5908C189.264 43.3808 190.7 43.1375 192.116 42.9119C192.768 43.1674 192.799 44.0382 192.149 44.9791C190.921 46.7567 189.71 48.352 188.793 50.2732C187.889 52.1665 187.206 54.0955 186.501 56.0156C185.598 58.4778 182.847 65.9702 184.588 69.1898C185.595 71.0524 186.729 71.7045 189.563 71.5256C190.602 71.4597 191.647 70.5126 191.878 69.4346C192.613 65.9886 193.301 62.7532 193.463 62.0154C193.45 62.0188 195.236 53.3672 195.867 50.2978C196.115 48.9772 196.304 47.7463 196.078 46.6632C195.924 45.9315 195.67 45.3442 195.449 44.6535C195.175 43.7972 195.578 42.8858 196.366 42.5001C197.825 42.4717 199.285 42.5131 200.779 42.3407C202.344 42.1602 203.919 41.9189 205.495 41.6645C206.19 41.5526 206.682 42.0591 206.5 42.7682Z" fill="#060707"/>
<path d="M216.068 58.0017C215.991 58.3829 216.25 58.6257 216.583 58.4794C217.334 58.1469 220.049 56.2953 221.166 55.292C222.98 53.6607 224.807 51.1161 225.438 49.5239C225.932 48.2792 225.507 47.2583 224.64 46.9204C222.918 46.2484 220.811 46.7959 218.79 47.023C218.527 47.0529 218.267 47.3127 218.203 47.6222C217.782 49.6668 216.626 55.241 216.068 58.0017ZM222.57 61.1684C220.281 63.005 217.136 65.2634 214.59 66.5729C214.387 66.6774 214.23 66.8839 214.189 67.0939C213.013 73.1519 213.04 72.6546 213.205 73.2622C213.425 74.0683 214.485 75.1295 213.629 76.1478C212.746 77.1983 211.904 77.1032 210.943 77.1703C209.327 77.2814 208.553 77.3519 206.843 77.5423C205.543 77.6859 203.906 78.0062 203.492 77.2082C202.964 76.1888 204.496 75.1054 205.028 74.3391C205.61 73.5044 209.645 53.9051 211.061 47.0004C211.107 46.0791 210.602 45.7983 210.271 45.1179C209.732 44.0084 209.421 42.4507 209.747 41.0022C209.752 40.9688 209.756 40.939 209.758 40.9106C209.773 40.7022 209.94 40.4379 210.153 40.4631C212.297 40.7083 213.5 41.2182 216.319 40.8386C220.003 40.3421 223.018 39.6571 226.655 39.4648C227.769 39.4054 228.728 39.4893 229.56 39.7544C229.671 39.7801 229.778 39.8145 229.886 39.8452C232.029 40.331 233.61 41.8293 233.454 44.4739C233.448 44.5562 233.435 44.6386 233.427 44.7217C232.961 50.797 227.079 57.5507 222.57 61.1684Z" fill="#060707"/>
<path d="M105.704 0.478592C105.623 3.06761 104.218 5.66889 102.183 7.25456C101.159 8.05257 98.7512 8.87394 95.4791 9.35818C94.2413 9.54131 92.9973 9.64091 91.7611 9.66735C90.9991 9.68382 90.3524 10.2225 90.2084 10.9699C88.8809 17.8711 84.7736 39.7395 83.9745 42.1504C83.142 44.6612 81.0621 47.9598 77.6766 49.2382C77.5491 49.2857 77.4203 49.3313 77.292 49.3723C74.8014 50.1691 72.1956 49.6313 70.7076 47.9789C69.4081 46.5377 69.1763 44.5191 70.0548 42.296C70.1287 42.1071 70.8049 40.4482 71.6362 40.146C71.9013 40.0521 72.0576 40.1123 72.1431 40.1816C72.3997 40.39 72.3365 40.8808 72.2756 41.3562C72.2522 41.5324 72.2312 41.6995 72.2346 41.8071C72.2576 42.4967 72.4128 43.0457 72.7089 43.4824C73.3311 44.3992 74.4264 44.7551 75.6404 44.4341C78.0302 43.805 79.0305 41.1401 79.5454 38.7074C79.5454 38.7074 83.8304 17.6137 85.1897 10.9232C85.374 10.0194 84.7595 9.15016 83.8465 9.01109C83.3952 8.94367 82.9485 8.87356 82.5068 8.80307C80.4718 8.46938 78.6666 8.21807 76.7564 8.12957C72.997 7.91771 69.2139 8.36863 66.1452 10.0574C64.612 10.891 63.298 12.0575 62.2586 13.4831C61.2437 14.9128 60.4791 16.5613 60.1864 18.2749C60.0331 19.0955 59.9998 19.9368 60.0856 20.767C60.3143 22.9795 61.3805 25.0528 62.9298 26.635C64.4771 28.2146 66.6551 29.6497 68.9599 29.3746C71.7592 29.0402 73.5774 26.499 74.3693 23.9905C74.8972 22.3623 75.0255 20.5441 74.5099 19.1289C74.2582 18.422 73.8559 17.8302 73.274 17.3942C72.9832 17.1743 72.6507 16.9919 72.2794 16.8448C72.0925 16.7758 71.9013 16.7073 71.6987 16.6563C71.4949 16.5973 71.332 16.5694 71.1447 16.5418C70.4214 16.4563 69.6552 16.6134 68.912 17.0149C68.5415 17.2134 68.1837 17.4677 67.8416 17.7551C67.6711 17.8995 67.5064 18.0535 67.3493 18.2148C67.1972 18.368 67.0298 18.5619 66.9233 18.6933L66.893 18.7312C66.6229 19.0645 66.1532 19.1963 65.769 19.0051C65.2778 18.7592 65.1296 18.1792 65.3755 17.7443C65.5441 17.4467 65.6862 17.2325 65.8579 16.9919C66.0253 16.7586 66.2027 16.5341 66.3927 16.3161C66.7708 15.8805 67.2029 15.4794 67.6914 15.1239C68.1795 14.7695 68.73 14.4665 69.3334 14.2497C69.9379 14.0393 70.5946 13.921 71.2516 13.9194C71.5734 13.9206 71.9209 13.9439 72.2162 13.993C72.5174 14.0332 72.8192 14.0983 73.1219 14.1734C73.728 14.3278 74.3302 14.5787 74.8961 14.9163C76.0396 15.5852 76.9591 16.6636 77.5096 17.8298C78.0682 19.0021 78.3041 20.2418 78.3628 21.4428C78.416 22.6485 78.2923 23.8319 78.0187 24.9816C77.7372 26.1332 77.3318 27.2285 76.7641 28.2943C76.1982 29.3535 75.4722 30.3695 74.5505 31.2514C72.4725 33.2083 69.5958 34.1684 66.7555 33.7592C62.0291 33.0796 58.1521 29.0842 56.7066 24.6739C55.9404 22.3335 55.8849 19.8897 56.2833 17.5827C56.7017 15.2745 57.584 13.0858 58.8796 11.1549C60.155 9.21605 61.8885 7.5281 63.863 6.26691C65.8402 4.99884 68.035 4.17402 70.2367 3.66181C72.4446 3.14883 74.6716 2.94004 76.8683 2.92356C77.9735 2.9274 79.0466 2.95958 80.1568 3.06991C81.251 3.17794 82.2938 3.31893 83.3079 3.46413C85.3345 3.75567 87.263 4.02193 89.1609 4.12077C91.0573 4.22382 92.9073 4.15601 94.7378 3.96714C95.5944 3.87673 98.0225 3.42467 98.3838 3.36988C98.9895 3.24192 99.5963 3.1063 100.207 2.95843L100.258 2.94617C100.268 2.94349 100.277 2.94272 100.288 2.94042C100.625 2.83775 100.966 2.72014 101.313 2.58298C102.669 2.05009 103.484 1.30418 104.517 0.359447L104.664 0.224213C104.868 0.0399399 105.166 -0.0435753 105.389 0.0223198C105.593 0.0809326 105.712 0.251411 105.704 0.478592Z" fill="#060707"/>
<path d="M102.414 35.6169C102.552 36.0823 103.183 36.6846 102.698 37.2884C102.199 37.9101 101.709 37.8668 101.151 37.9182C100.214 38.0051 99.7638 38.0561 98.7727 38.1894C98.0191 38.2906 97.0717 38.499 96.8204 38.04C96.4997 37.4546 97.3751 36.8045 97.6751 36.3517C97.8356 36.1095 98.4252 33.1949 99.0684 29.822C99.1152 29.5788 98.9179 29.4294 98.6796 29.5286L95.0926 31.0231C94.9386 31.0874 94.8141 31.2403 94.7857 31.3977C94.3065 34.1048 93.9134 36.431 93.9582 36.5819C94.0969 37.0478 94.7271 37.65 94.2432 38.253C93.7441 38.8756 93.2529 38.8323 92.6959 38.8832C91.7577 38.9702 91.3087 39.0215 90.3172 39.1548C89.5636 39.256 88.6158 39.464 88.3649 39.0054C88.0442 38.4197 88.9196 37.7695 89.2192 37.3171C89.546 36.824 91.6278 25.3769 92.3576 21.3443C92.3722 20.8084 92.0749 20.6521 91.8734 20.2613C91.545 19.6234 91.3431 18.7224 91.5129 17.8753C91.5152 17.8558 91.5175 17.8385 91.5182 17.8224C91.524 17.701 91.6171 17.5455 91.7423 17.5566C92.9913 17.6703 93.6977 17.9512 95.3309 17.6918C95.8266 17.6136 96.3239 17.5259 96.8212 17.4355C97.2587 17.3547 98.1206 17.0091 98.1727 17.5845C98.1957 17.8381 98.1019 18.1783 97.9337 18.4346C97.6402 18.881 97.3924 19.3192 97.1292 19.782C96.5633 20.7777 96.4702 21.7952 96.3227 22.7871C96.2695 23.1434 96.0254 24.4999 95.7132 26.23C95.6695 26.4726 95.8657 26.6193 96.1028 26.5201L99.7308 25.0091C99.8848 24.9447 100.009 24.7934 100.037 24.636C100.26 23.4288 100.464 22.3097 100.63 21.3934C100.756 20.6252 100.849 19.91 100.702 19.2863C100.603 18.8653 100.446 18.5285 100.309 18.1312C100.191 17.791 100.255 17.2145 100.703 16.9329C101.082 16.6946 101.571 16.8482 101.928 16.834C102.406 16.8153 102.887 16.7877 103.376 16.7199C104.282 16.5942 105.195 16.4333 106.108 16.2644C106.51 16.19 106.803 16.477 106.708 16.89C106.671 17.0482 106.595 17.2217 106.476 17.4018C106.182 17.8481 105.819 18.2523 105.556 18.7151C104.99 19.7108 104.926 20.8321 104.778 21.824C104.602 23.0093 102.31 35.2663 102.414 35.6169Z" fill="#060707"/>
<path d="M119.068 32.5397C118.811 33.9177 118.365 35.1329 116.892 35.824C115.587 36.4362 114.505 36.3814 113.047 36.5458C111.511 36.7182 109.963 36.9296 108.441 37.0369C108.128 37.0725 107.815 37.1066 107.499 37.1453C107.486 37.148 107.474 37.1492 107.46 37.1511C107.177 37.189 106.868 37.2423 106.578 37.2683C106.039 37.3319 105.538 37.3342 105.365 37.0201C105.047 36.4393 105.961 35.8114 106.214 35.3451C106.65 34.5375 109.217 20.1079 109.328 19.4923C109.343 18.9601 109.047 18.8054 108.848 18.4173C108.521 17.7848 108.321 16.8898 108.49 16.0497C108.493 16.0298 108.494 16.0129 108.495 15.9968C108.501 15.8765 108.594 15.7221 108.717 15.7332C109.957 15.8463 110.658 16.124 112.279 15.8677C113.844 15.6202 115.427 15.3333 117.004 14.9678C118.295 14.6682 119.634 14.3863 120.764 14.7211C122.039 15.0988 122.042 16.4853 121.788 17.8633C121.674 18.4828 121.258 20.9645 120.189 20.606C119.943 20.5228 119.841 20.2351 119.715 20.0267C119.173 19.1318 118.455 18.8326 117.306 18.8065C116.2 18.7808 115.032 19.0268 113.881 19.2436C113.708 19.2762 113.55 19.4371 113.517 19.6129C113.473 19.8509 113.185 21.5158 112.83 23.5754C112.783 23.8459 113.028 23.9857 113.286 23.8382C113.749 23.5731 114.216 23.3187 114.684 23.0662C115.041 22.8728 116.153 22.2767 116.181 22.2659C116.713 22.0579 116.655 23.0007 116.622 23.3137C116.554 23.9777 116.356 24.6366 115.951 25.2787C115.177 26.5019 113.999 27.1444 112.795 27.6601C112.369 27.8428 112.025 28.26 111.95 28.696C111.618 30.6322 111.353 32.188 111.307 32.473C111.265 32.7354 111.422 32.9251 111.671 32.917C112.405 32.8925 113.891 32.809 114.748 32.599C115.957 32.3044 116.82 31.8255 117.724 30.7651C117.935 30.5184 118.149 30.1943 118.438 30.0502C119.688 29.4277 119.184 31.9186 119.068 32.5397Z" fill="#060707"/>
</svg>
